<svg width="1356" height="674" viewBox="0 0 1356 674" class="keymap" xmlns="http://www.w3.org/2000/svg" xmlns:xlink="http://www.w3.org/1999/xlink">
<style>/* inherit to force styles through use tags */
svg path {
    fill: inherit;
}

/* font and background color specifications */
svg.keymap {
    font-family: SFMono-Regular,Consolas,Liberation Mono,Menlo,monospace;
    font-size: 14px;
    font-kerning: normal;
    text-rendering: optimizeLegibility;
    fill: #24292e;
}

/* default key styling */
rect.key {
    fill: #f6f8fa;
}

rect.key, rect.combo {
    stroke: #c9cccf;
    stroke-width: 1;
}

/* default key side styling, only used is draw_key_sides is set */
rect.side {
    filter: brightness(90%);
}

/* color accent for combo boxes */
rect.combo, rect.combo-separate {
    fill: #cdf;
}

/* color accent for held keys */
rect.held, rect.combo.held {
    fill: #fdd;
}

/* color accent for ghost (optional) keys */
rect.ghost, rect.combo.ghost {
    stroke-dasharray: 4, 4;
    stroke-width: 2;
}

text {
    text-anchor: middle;
    dominant-baseline: middle;
}

/* styling for layer labels */
text.label {
    font-weight: bold;
    text-anchor: start;
    stroke: white;
    stroke-width: 4;
    paint-order: stroke;
}

/* styling for optional footer */
text.footer {
    text-anchor: end;
    dominant-baseline: auto;
    stroke: white;
    stroke-width: 4;
    paint-order: stroke;
}

/* styling for combo tap, and key non-tap label text */
text.combo, text.hold, text.shifted, text.left, text.right, text.tl, text.tr, text.bl, text.br {
    font-size: 11px;
}

text.hold, text.bl, text.br {
    text-anchor: middle;
    dominant-baseline: auto;
}

text.shifted, text.tl, text.tr {
    text-anchor: middle;
    dominant-baseline: hanging;
}

text.left, text.tl, text.bl {
    text-anchor: start;
}

text.right, text.tr, text.br {
    text-anchor: end;
}

text.layer-activator {
    text-decoration: underline;
}

/* styling for hold/shifted label text in combo box */
text.combo.hold, text.combo.shifted, text.combo.left, text.combo.right {
    font-size: 8px;
}

/* lighter symbol for transparent keys */
text.trans {
    fill: #7b7e81;
}

/* styling for combo dendrons */
path.combo {
    stroke-width: 1;
    stroke: gray;
    fill: none;
}

/* Start Tabler Icons Cleanup */
/* cannot use height/width with glyphs */
.icon-tabler > path {
    fill: inherit;
    stroke: inherit;
    stroke-width: 2;
}
/* hide tabler's default box */
.icon-tabler > path[stroke="none"][fill="none"] {
    visibility: hidden;
}
/* End Tabler Icons Cleanup */

@media (prefers-color-scheme: dark) {
svg.keymap { fill: #d1d6db; }
rect.key { fill: #3f4750; }
rect.key, rect.combo { stroke: #60666c; }
rect.combo, rect.combo-separate { fill: #1f3d7a; }
rect.held, rect.combo.held { fill: #854747; }
text.label, text.footer { stroke: black; }
text.trans { fill: #7e8184; }
path.combo { stroke: #7f7f7f; }

}
text.tl, text.tr, text.bl, text.br { font-size: 11px; }
text.tl { fill: #6b7280; }
.lh text.tr { fill: #16a34a; font-weight: bold; }
.lh text.bl { fill: #dc2626; font-weight: bold; }
.lh text.br { fill: #2563eb; font-weight: bold; }
.rh text.tr { fill: #d97706; font-weight: bold; }
.rh text.bl { fill: #c026d3; font-weight: bold; }
.rh text.br { fill: #0891b2; font-weight: bold; }</style>
<g transform="translate(30, 0)" class="layer-Overview - left hand: Sym (green) Fun (red) Num (blue); right hand: Nav (amber) Media (magenta) Mouse (teal); grey: hold">
<text x="0" y="28" class="label" id="Overview---left-hand:-Sym-green-Fun-red-Num-blue-right-hand:-Nav-amber-Media-magenta-Mouse-teal-grey:-hold">Overview - left hand: Sym (green) Fun (red) Num (blue); right hand: Nav (amber) Media (magenta) Mouse (teal); grey: hold</text>
<g transform="translate(0, 56)">
<g transform="translate(45, 54)" class="key lh keypos-0">
<rect rx="6" ry="6" x="-43" y="-34" width="86" height="68" class="key lh"/>
<text x="0" y="0" class="key lh tap">=</text>
</g>
<g transform="translate(126, 54)" class="key lh keypos-1">
<rect rx="6" ry="6" x="-34" y="-34" width="68" height="68" class="key lh"/>
<text x="0" y="0" class="key lh tap">1</text>
</g>
<g transform="translate(198, 36)" class="key lh keypos-2">
<rect rx="6" ry="6" x="-34" y="-34" width="68" height="68" class="key lh"/>
<text x="0" y="0" class="key lh tap">2</text>
</g>
<g transform="translate(270, 36)" class="key lh keypos-3">
<rect rx="6" ry="6" x="-34" y="-34" width="68" height="68" class="key lh"/>
<text x="0" y="0" class="key lh tap">3</text>
</g>
<g transform="translate(342, 36)" class="key lh keypos-4">
<rect rx="6" ry="6" x="-34" y="-34" width="68" height="68" class="key lh"/>
<text x="0" y="0" class="key lh tap">4</text>
</g>
<g transform="translate(414, 36)" class="key lh keypos-5">
<rect rx="6" ry="6" x="-34" y="-34" width="68" height="68" class="key lh"/>
<text x="0" y="0" class="key lh tap">5</text>
</g>
<g transform="translate(486, 36)" class="key lh keypos-6">
<rect rx="6" ry="6" x="-34" y="-34" width="68" height="68" class="key lh"/>
</g>
<g transform="translate(810, 36)" class="key rh keypos-7">
<rect rx="6" ry="6" x="-34" y="-34" width="68" height="68" class="key rh"/>
</g>
<g transform="translate(882, 36)" class="key rh keypos-8">
<rect rx="6" ry="6" x="-34" y="-34" width="68" height="68" class="key rh"/>
<text x="0" y="0" class="key rh tap">6</text>
</g>
<g transform="translate(954, 36)" class="key rh keypos-9">
<rect rx="6" ry="6" x="-34" y="-34" width="68" height="68" class="key rh"/>
<text x="0" y="0" class="key rh tap">7</text>
</g>
<g transform="translate(1026, 36)" class="key rh keypos-10">
<rect rx="6" ry="6" x="-34" y="-34" width="68" height="68" class="key rh"/>
<text x="0" y="0" class="key rh tap">8</text>
</g>
<g transform="translate(1098, 36)" class="key rh keypos-11">
<rect rx="6" ry="6" x="-34" y="-34" width="68" height="68" class="key rh"/>
<text x="0" y="0" class="key rh tap">9</text>
</g>
<g transform="translate(1170, 54)" class="key rh keypos-12">
<rect rx="6" ry="6" x="-34" y="-34" width="68" height="68" class="key rh"/>
<text x="0" y="0" class="key rh tap">0</text>
</g>
<g transform="translate(1251, 54)" class="key rh keypos-13">
<rect rx="6" ry="6" x="-43" y="-34" width="86" height="68" class="key rh"/>
<text x="0" y="0" class="key rh tap">-</text>
</g>
<g transform="translate(45, 126)" class="key lh keypos-14">
<rect rx="6" ry="6" x="-43" y="-34" width="86" height="68" class="key lh"/>
<text x="0" y="0" class="key lh tap">TAB</text>
</g>
<g transform="translate(126, 126)" class="key lh keypos-15">
<rect rx="6" ry="6" x="-34" y="-34" width="68" height="68" class="key lh"/>
<text x="0" y="0" class="key lh tap">Q</text>
<text x="32" y="-32" class="key lh tr">{</text>
<text x="-32" y="32" class="key lh bl">F12</text>
<text x="32" y="32" class="key lh br">[</text>
</g>
<g transform="translate(198, 108)" class="key lh keypos-16">
<rect rx="6" ry="6" x="-34" y="-34" width="68" height="68" class="key lh"/>
<text x="0" y="0" class="key lh tap">W</text>
<text x="32" y="-32" class="key lh tr">&amp;</text>
<text x="-32" y="32" class="key lh bl">F7</text>
<text x="32" y="32" class="key lh br">7</text>
</g>
<g transform="translate(270, 108)" class="key lh keypos-17">
<rect rx="6" ry="6" x="-34" y="-34" width="68" height="68" class="key lh"/>
<text x="0" y="0" class="key lh tap">E</text>
<text x="32" y="-32" class="key lh tr">*</text>
<text x="-32" y="32" class="key lh bl">F8</text>
<text x="32" y="32" class="key lh br">8</text>
</g>
<g transform="translate(342, 108)" class="key lh keypos-18">
<rect rx="6" ry="6" x="-34" y="-34" width="68" height="68" class="key lh"/>
<text x="0" y="0" class="key lh tap">R</text>
<text x="32" y="-32" class="key lh tr">(</text>
<text x="-32" y="32" class="key lh bl">F9</text>
<text x="32" y="32" class="key lh br">9</text>
</g>
<g transform="translate(414, 108)" class="key lh keypos-19">
<rect rx="6" ry="6" x="-34" y="-34" width="68" height="68" class="key lh"/>
<text x="0" y="0" class="key lh tap">T</text>
<text x="32" y="-32" class="key lh tr">}</text>
<text x="-32" y="32" class="key lh bl">PrtSc</text>
<text x="32" y="32" class="key lh br">]</text>
</g>
<g transform="translate(486, 108)" class="key lh keypos-20">
<rect rx="6" ry="6" x="-34" y="-34" width="68" height="68" class="key lh"/>
</g>
<g transform="translate(810, 108)" class="key rh keypos-21">
<rect rx="6" ry="6" x="-34" y="-34" width="68" height="68" class="key rh"/>
</g>
<g transform="translate(882, 108)" class="key rh keypos-22">
<rect rx="6" ry="6" x="-34" y="-34" width="68" height="68" class="key rh"/>
<text x="0" y="0" class="key rh tap">Y</text>
<text x="32" y="-32" class="key rh tr">Redo</text>
<text x="-32" y="32" class="key rh bl">RGB</text>
</g>
<g transform="translate(954, 108)" class="key rh keypos-23">
<rect rx="6" ry="6" x="-34" y="-34" width="68" height="68" class="key rh"/>
<text x="0" y="0" class="key rh tap">U</text>
<text x="32" y="-32" class="key rh tr">Paste</text>
<text x="-32" y="32" class="key rh bl">Eff</text>
</g>
<g transform="translate(1026, 108)" class="key rh keypos-24">
<rect rx="6" ry="6" x="-34" y="-34" width="68" height="68" class="key rh"/>
<text x="0" y="0" class="key rh tap">I</text>
<text x="32" y="-32" class="key rh tr">Copy</text>
<text x="-32" y="32" class="key rh bl">Hue</text>
</g>
<g transform="translate(1098, 108)" class="key rh keypos-25">
<rect rx="6" ry="6" x="-34" y="-34" width="68" height="68" class="key rh"/>
<text x="0" y="0" class="key rh tap">O</text>
<text x="32" y="-32" class="key rh tr">Cut</text>
<text x="-32" y="32" class="key rh bl">Sat</text>
</g>
<g transform="translate(1170, 126)" class="key rh keypos-26">
<rect rx="6" ry="6" x="-34" y="-34" width="68" height="68" class="key rh"/>
<text x="0" y="0" class="key rh tap">P</text>
<text x="32" y="-32" class="key rh tr">Undo</text>
<text x="-32" y="32" class="key rh bl">Bri</text>
</g>
<g transform="translate(1251, 126)" class="key rh keypos-27">
<rect rx="6" ry="6" x="-43" y="-34" width="86" height="68" class="key rh"/>
<text x="0" y="0" class="key rh tap">\</text>
</g>
<g transform="translate(45, 198)" class="key lh keypos-28">
<rect rx="6" ry="6" x="-43" y="-34" width="86" height="68" class="key lh"/>
<text x="0" y="0" class="key lh tap">ESC</text>
</g>
<g transform="translate(126, 198)" class="key lh keypos-29">
<rect rx="6" ry="6" x="-34" y="-34" width="68" height="68" class="key lh"/>
<text x="0" y="0" class="key lh tap">A</text>
<text x="-32" y="-32" class="key lh tl">LGUI</text>
<text x="32" y="-32" class="key lh tr">:</text>
<text x="-32" y="32" class="key lh bl">F11</text>
<text x="32" y="32" class="key lh br">;</text>
</g>
<g transform="translate(198, 180)" class="key lh keypos-30">
<rect rx="6" ry="6" x="-34" y="-34" width="68" height="68" class="key lh"/>
<text x="0" y="0" class="key lh tap">S</text>
<text x="-32" y="-32" class="key lh tl">LALT</text>
<text x="32" y="-32" class="key lh tr">$</text>
<text x="-32" y="32" class="key lh bl">F4</text>
<text x="32" y="32" class="key lh br">4</text>
</g>
<g transform="translate(270, 180)" class="key lh keypos-31">
<rect rx="6" ry="6" x="-34" y="-34" width="68" height="68" class="key lh"/>
<text x="0" y="0" class="key lh tap">D</text>
<text x="-32" y="-32" class="key lh tl">LCTRL</text>
<text x="32" y="-32" class="key lh tr">%</text>
<text x="-32" y="32" class="key lh bl">F5</text>
<text x="32" y="32" class="key lh br">5</text>
</g>
<g transform="translate(342, 180)" class="key lh keypos-32">
<rect rx="6" ry="6" x="-34" y="-34" width="68" height="68" class="key lh"/>
<text x="0" y="0" class="key lh tap">F</text>
<text x="-32" y="-32" class="key lh tl">LSHFT</text>
<text x="32" y="-32" class="key lh tr">^</text>
<text x="-32" y="32" class="key lh bl">F6</text>
<text x="32" y="32" class="key lh br">6</text>
</g>
<g transform="translate(414, 180)" class="key lh keypos-33">
<rect rx="6" ry="6" x="-34" y="-34" width="68" height="68" class="key lh"/>
<text x="0" y="0" class="key lh tap">G</text>
<text x="32" y="-32" class="key lh tr">+</text>
<text x="-32" y="32" class="key lh bl">ScrLk</text>
<text x="32" y="32" class="key lh br">=</text>
</g>
<g transform="translate(486, 180)" class="key lh keypos-34">
<rect rx="6" ry="6" x="-34" y="-34" width="68" height="68" class="key lh"/>
</g>
<g transform="translate(508, 360) rotate(15.0)" class="key lh keypos-35">
<rect rx="6" ry="6" x="-34" y="-34" width="68" height="68" class="key lh"/>
<text x="0" y="0" class="key lh tap">LCTRL</text>
</g>
<g transform="translate(577, 379) rotate(15.0)" class="key lh keypos-36">
<rect rx="6" ry="6" x="-34" y="-34" width="68" height="68" class="key lh"/>
<text x="0" y="0" class="key lh tap">RCTRL</text>
</g>
<g transform="translate(719, 379) rotate(-15.0)" class="key rh keypos-37">
<rect rx="6" ry="6" x="-34" y="-34" width="68" height="68" class="key rh"/>
<text x="0" y="0" class="key rh tap">LGUI</text>
</g>
<g transform="translate(788, 360) rotate(-15.0)" class="key rh keypos-38">
<rect rx="6" ry="6" x="-34" y="-34" width="68" height="68" class="key rh"/>
<text x="0" y="0" class="key rh tap">LALT</text>
</g>
<g transform="translate(810, 180)" class="key rh keypos-39">
<rect rx="6" ry="6" x="-34" y="-34" width="68" height="68" class="key rh"/>
</g>
<g transform="translate(882, 180)" class="key rh keypos-40">
<rect rx="6" ry="6" x="-34" y="-34" width="68" height="68" class="key rh"/>
<text x="0" y="0" class="key rh tap">H</text>
<text x="32" y="-32" class="key rh tr">CapsW</text>
<text x="-32" y="32" class="key rh bl">LEDs</text>
</g>
<g transform="translate(954, 180)" class="key rh keypos-41">
<rect rx="6" ry="6" x="-34" y="-34" width="68" height="68" class="key rh"/>
<text x="0" y="0" class="key rh tap">J</text>
<text x="-32" y="-32" class="key rh tl">LSHFT</text>
<text x="32" y="-32" class="key rh tr">←</text>
<text x="-32" y="32" class="key rh bl">Prev</text>
<text x="32" y="32" class="key rh br">M←</text>
</g>
<g transform="translate(1026, 180)" class="key rh keypos-42">
<rect rx="6" ry="6" x="-34" y="-34" width="68" height="68" class="key rh"/>
<text x="0" y="0" class="key rh tap">K</text>
<text x="-32" y="-32" class="key rh tl">LCTRL</text>
<text x="32" y="-32" class="key rh tr">↓</text>
<text x="-32" y="32" class="key rh bl">Vol-</text>
<text x="32" y="32" class="key rh br">M↓</text>
</g>
<g transform="translate(1098, 180)" class="key rh keypos-43">
<rect rx="6" ry="6" x="-34" y="-34" width="68" height="68" class="key rh"/>
<text x="0" y="0" class="key rh tap">L</text>
<text x="-32" y="-32" class="key rh tl">LALT</text>
<text x="32" y="-32" class="key rh tr">↑</text>
<text x="-32" y="32" class="key rh bl">Vol+</text>
<text x="32" y="32" class="key rh br">M↑</text>
</g>
<g transform="translate(1170, 198)" class="key rh keypos-44">
<rect rx="6" ry="6" x="-34" y="-34" width="68" height="68" class="key rh"/>
<text x="0" y="0" class="key rh tap">;</text>
<text x="-32" y="-32" class="key rh tl">LGUI</text>
<text x="32" y="-32" class="key rh tr">→</text>
<text x="-32" y="32" class="key rh bl">Next</text>
<text x="32" y="32" class="key rh br">M→</text>
</g>
<g transform="translate(1251, 198)" class="key rh keypos-45">
<rect rx="6" ry="6" x="-43" y="-34" width="86" height="68" class="key rh"/>
<text x="0" y="0" class="key rh tap">&#x27;</text>
</g>
<g transform="translate(45, 270)" class="key lh keypos-46">
<rect rx="6" ry="6" x="-43" y="-34" width="86" height="68" class="key lh"/>
<text x="0" y="0" class="key lh tap">LSHFT</text>
</g>
<g transform="translate(126, 270)" class="key lh keypos-47">
<rect rx="6" ry="6" x="-34" y="-34" width="68" height="68" class="key lh"/>
<text x="0" y="0" class="key lh tap">Z</text>
<text x="-32" y="-32" class="key lh tl">Button</text>
<text x="32" y="-32" class="key lh tr">~</text>
<text x="-32" y="32" class="key lh bl">F10</text>
<text x="32" y="32" class="key lh br">`</text>
</g>
<g transform="translate(198, 252)" class="key lh keypos-48">
<rect rx="6" ry="6" x="-34" y="-34" width="68" height="68" class="key lh"/>
<text x="0" y="0" class="key lh tap">X</text>
<text x="-32" y="-32" class="key lh tl">RALT</text>
<text x="32" y="-32" class="key lh tr">!</text>
<text x="-32" y="32" class="key lh bl">F1</text>
<text x="32" y="32" class="key lh br">1</text>
</g>
<g transform="translate(270, 252)" class="key lh keypos-49">
<rect rx="6" ry="6" x="-34" y="-34" width="68" height="68" class="key lh"/>
<text x="0" y="0" class="key lh tap">C</text>
<text x="32" y="-32" class="key lh tr">@</text>
<text x="-32" y="32" class="key lh bl">F2</text>
<text x="32" y="32" class="key lh br">2</text>
</g>
<g transform="translate(342, 252)" class="key lh keypos-50">
<rect rx="6" ry="6" x="-34" y="-34" width="68" height="68" class="key lh"/>
<text x="0" y="0" class="key lh tap">V</text>
<text x="32" y="-32" class="key lh tr">#</text>
<text x="-32" y="32" class="key lh bl">F3</text>
<text x="32" y="32" class="key lh br">3</text>
</g>
<g transform="translate(414, 252)" class="key lh keypos-51">
<rect rx="6" ry="6" x="-34" y="-34" width="68" height="68" class="key lh"/>
<text x="0" y="0" class="key lh tap">B</text>
<text x="32" y="-32" class="key lh tr">|</text>
<text x="-32" y="32" class="key lh bl">Pause</text>
<text x="32" y="32" class="key lh br">\</text>
</g>
<g transform="translate(559, 448) rotate(15.0)" class="key lh keypos-52">
<rect rx="6" ry="6" x="-34" y="-34" width="68" height="68" class="key lh"/>
<text x="0" y="0" class="key lh tap">LALT</text>
</g>
<g transform="translate(737, 448) rotate(-15.0)" class="key rh keypos-53">
<rect rx="6" ry="6" x="-34" y="-34" width="68" height="68" class="key rh"/>
<text x="0" y="0" class="key rh tap">RCTRL</text>
</g>
<g transform="translate(882, 252)" class="key rh keypos-54">
<rect rx="6" ry="6" x="-34" y="-34" width="68" height="68" class="key rh"/>
<text x="0" y="0" class="key rh tap">N</text>
<text x="32" y="-32" class="key rh tr">Ins</text>
<text x="-32" y="32" class="key rh bl">Out</text>
</g>
<g transform="translate(954, 252)" class="key rh keypos-55">
<rect rx="6" ry="6" x="-34" y="-34" width="68" height="68" class="key rh"/>
<text x="0" y="0" class="key rh tap">M</text>
<text x="32" y="-32" class="key rh tr">Home</text>
<text x="-32" y="32" class="key rh bl">BT0</text>
<text x="32" y="32" class="key rh br">W←</text>
</g>
<g transform="translate(1026, 252)" class="key rh keypos-56">
<rect rx="6" ry="6" x="-34" y="-34" width="68" height="68" class="key rh"/>
<text x="0" y="0" class="key rh tap">,</text>
<text x="32" y="-32" class="key rh tr">PgDn</text>
<text x="-32" y="32" class="key rh bl">BT1</text>
<text x="32" y="32" class="key rh br">W↓</text>
</g>
<g transform="translate(1098, 252)" class="key rh keypos-57">
<rect rx="6" ry="6" x="-34" y="-34" width="68" height="68" class="key rh"/>
<text x="0" y="0" class="key rh tap">.</text>
<text x="-32" y="-32" class="key rh tl">RALT</text>
<text x="32" y="-32" class="key rh tr">PgUp</text>
<text x="-32" y="32" class="key rh bl">BT2</text>
<text x="32" y="32" class="key rh br">W↑</text>
</g>
<g transform="translate(1170, 270)" class="key rh keypos-58">
<rect rx="6" ry="6" x="-34" y="-34" width="68" height="68" class="key rh"/>
<text x="0" y="0" class="key rh tap">/</text>
<text x="-32" y="-32" class="key rh tl">Button</text>
<text x="32" y="-32" class="key rh tr">End</text>
<text x="-32" y="32" class="key rh bl">BT3</text>
<text x="32" y="32" class="key rh br">W→</text>
</g>
<g transform="translate(1251, 270)" class="key rh keypos-59">
<rect rx="6" ry="6" x="-43" y="-34" width="86" height="68" class="key rh"/>
<text x="0" y="0" class="key rh tap">RSHFT</text>
</g>
<g transform="translate(45, 342)" class="key lh keypos-60">
<rect rx="6" ry="6" x="-43" y="-34" width="86" height="68" class="key lh"/>
</g>
<g transform="translate(126, 342)" class="key lh keypos-61">
<rect rx="6" ry="6" x="-34" y="-34" width="68" height="68" class="key lh"/>
<text x="0" y="0" class="key lh tap">`</text>
</g>
<g transform="translate(198, 324)" class="key lh keypos-62">
<rect rx="6" ry="6" x="-34" y="-34" width="68" height="68" class="key lh"/>
<text x="0" y="0" class="key lh tap">CAPS</text>
</g>
<g transform="translate(270, 324)" class="key lh keypos-63">
<rect rx="6" ry="6" x="-34" y="-34" width="68" height="68" class="key lh"/>
<text x="0" y="0" class="key lh tap">LEFT</text>
</g>
<g transform="translate(342, 324)" class="key lh keypos-64">
<rect rx="6" ry="6" x="-34" y="-34" width="68" height="68" class="key lh"/>
<text x="0" y="0" class="key lh tap">RIGHT</text>
</g>
<g transform="translate(410, 446) rotate(15.0)" class="key lh keypos-65">
<rect rx="6" ry="6" x="-34" y="-70" width="68" height="140" class="key lh"/>
<text x="0" y="0" class="key lh tap">ESC</text>
<text x="-32" y="-68" class="key lh tl">Nav</text>
<text x="32" y="-68" class="key lh tr">(</text>
<text x="-32" y="68" class="key lh bl">Menu</text>
<text x="32" y="68" class="key lh br">.</text>
</g>
<g transform="translate(480, 464) rotate(15.0)" class="key lh keypos-66">
<rect rx="6" ry="6" x="-34" y="-70" width="68" height="140" class="key lh"/>
<text x="0" y="0" class="key lh tap">BSPC</text>
<text x="-32" y="-68" class="key lh tl">Media</text>
<text x="32" y="-68" class="key lh tr">)</text>
<text x="-32" y="68" class="key lh bl">Spc</text>
<text x="32" y="68" class="key lh br">0</text>
</g>
<g transform="translate(540, 518) rotate(15.0)" class="key lh keypos-67">
<rect rx="6" ry="6" x="-34" y="-34" width="68" height="68" class="key lh"/>
<text x="0" y="0" class="key lh tap">TAB</text>
<text x="-32" y="-32" class="key lh tl">Mouse</text>
<text x="32" y="-32" class="key lh tr">_</text>
<text x="-32" y="32" class="key lh bl">Tab</text>
<text x="32" y="32" class="key lh br">-</text>
</g>
<g transform="translate(756, 518) rotate(-15.0)" class="key rh keypos-68">
<rect rx="6" ry="6" x="-34" y="-34" width="68" height="68" class="key rh"/>
<text x="0" y="0" class="key rh tap">DEL</text>
<text x="-32" y="-32" class="key rh tl">Fun</text>
<text x="32" y="-32" class="key rh tr">Ret</text>
<text x="-32" y="32" class="key rh bl">Stop</text>
<text x="32" y="32" class="key rh br">Clk R</text>
</g>
<g transform="translate(816, 464) rotate(-15.0)" class="key rh keypos-69">
<rect rx="6" ry="6" x="-34" y="-70" width="68" height="140" class="key rh"/>
<text x="0" y="0" class="key rh tap">RET</text>
<text x="-32" y="-68" class="key rh tl">Num</text>
<text x="32" y="-68" class="key rh tr">Bspc</text>
<text x="-32" y="68" class="key rh bl">Play</text>
<text x="32" y="68" class="key rh br">Clk L</text>
</g>
<g transform="translate(886, 446) rotate(-15.0)" class="key rh keypos-70">
<rect rx="6" ry="6" x="-34" y="-70" width="68" height="140" class="key rh"/>
<text x="0" y="0" class="key rh tap">SPACE</text>
<text x="-32" y="-68" class="key rh tl">Sym</text>
<text x="32" y="-68" class="key rh tr">Del</text>
<text x="-32" y="68" class="key rh bl">Mute</text>
<text x="32" y="68" class="key rh br">Clk M</text>
</g>
<g transform="translate(954, 324)" class="key rh keypos-71">
<rect rx="6" ry="6" x="-34" y="-34" width="68" height="68" class="key rh"/>
<text x="0" y="0" class="key rh tap">UP</text>
</g>
<g transform="translate(1026, 324)" class="key rh keypos-72">
<rect rx="6" ry="6" x="-34" y="-34" width="68" height="68" class="key rh"/>
<text x="0" y="0" class="key rh tap">DOWN</text>
</g>
<g transform="translate(1098, 324)" class="key rh keypos-73">
<rect rx="6" ry="6" x="-34" y="-34" width="68" height="68" class="key rh"/>
<text x="0" y="0" class="key rh tap">[</text>
</g>
<g transform="translate(1170, 342)" class="key rh keypos-74">
<rect rx="6" ry="6" x="-34" y="-34" width="68" height="68" class="key rh"/>
<text x="0" y="0" class="key rh tap">]</text>
</g>
<g transform="translate(1251, 342)" class="key rh keypos-75">
<rect rx="6" ry="6" x="-43" y="-34" width="86" height="68" class="key rh"/>
</g>
</g>
</g>
</svg>
